<!-- Generated by IcoMoon.io -->
<svg version="1.1" xmlns="http://www.w3.org/2000/svg" width="34" height="32" viewBox="0 0 34 32">
<title>twitter</title>
<path d="M33.684 4.714c-1.253 0.549-2.587 0.914-3.979 1.091 1.432-0.855 2.524-2.198 3.038-3.817-1.335 0.796-2.808 1.358-4.379 1.672-1.267-1.349-3.074-2.185-5.044-2.185-3.823 0-6.901 3.103-6.901 6.907 0 0.547 0.046 1.074 0.16 1.575-5.741-0.28-10.821-3.032-14.234-7.223-0.596 1.034-0.945 2.217-0.945 3.491 0 2.392 1.232 4.512 3.067 5.739-1.109-0.021-2.198-0.343-3.12-0.851 0 0.021 0 0.048 0 0.076 0 3.356 2.394 6.143 5.533 6.785-0.562 0.154-1.175 0.227-1.811 0.227-0.442 0-0.888-0.025-1.307-0.118 0.895 2.735 3.434 4.745 6.453 4.811-2.349 1.838-5.333 2.945-8.562 2.945-0.566 0-1.109-0.025-1.653-0.095 3.059 1.973 6.684 3.099 10.594 3.099 12.707 0 19.655-10.526 19.655-19.651 0-0.305-0.010-0.6-0.025-0.893 1.371-0.973 2.522-2.187 3.461-3.585z"></path>
</svg>
